<svg width="39" height="39" viewBox="0 0 39 39" fill="none" xmlns="http://www.w3.org/2000/svg">
<g clip-path="url(#clip0_230_1049)">
<path d="M19.5 7.71875C22.3762 7.71875 24.9518 8.71 26.9831 10.6437L32.5487 5.07812C29.1687 1.93375 24.7568 0 19.5 0C11.8787 0 5.28933 4.37125 2.07996 10.7412L8.56371 15.7706C10.0993 11.1475 14.4137 7.71875 19.5 7.71875Z" fill="#EA4335"/>
<path d="M38.1712 19.9469C38.1712 18.6713 38.0494 17.4363 37.8625 16.25H19.5V23.5788H30.0137C29.5425 25.9838 28.1775 28.0313 26.13 29.4125L32.4106 34.2875C36.075 30.8913 38.1712 25.87 38.1712 19.9469Z" fill="#4285F4"/>
<path d="M8.55562 23.2294C8.16562 22.0512 7.93813 20.8 7.93813 19.5C7.93813 18.2 8.1575 16.9487 8.55562 15.7706L2.07187 10.7412C0.7475 13.3737 0 16.3475 0 19.5C0 22.6525 0.7475 25.6262 2.08 28.2587L8.55562 23.2294Z" fill="#FBBC05"/>
<path d="M19.5 39C24.765 39 29.1931 37.2694 32.4106 34.2794L26.13 29.4044C24.3831 30.5825 22.1325 31.2731 19.5 31.2731C14.4137 31.2731 10.0993 27.8444 8.55559 23.2212L2.07184 28.2506C5.28934 34.6287 11.8787 39 19.5 39Z" fill="#34A853"/>
</g>
<defs>
<clipPath id="clip0_230_1049">
<rect width="39" height="39" fill="white"/>
</clipPath>
</defs>
</svg>
