<svg width="44" height="44" viewBox="0 0 44 44" fill="none" xmlns="http://www.w3.org/2000/svg">
<circle cx="22" cy="22" r="22" fill="#E8F5E9"/>
<path d="M18.7263 11.0173C17.841 10.7111 17.0024 10.4211 15.704 10.4211C12.954 10.4211 11.579 13.0234 11.579 16.2762C11.579 18.3561 12.1411 19.6381 12.7263 20.9724C13.0563 21.725 13.3936 22.4941 13.6415 23.4325C13.8464 24.2079 13.9291 25.33 14.0171 26.5233C14.2245 29.3344 14.461 32.5404 16.3915 32.5404C17.6276 32.5404 18.1692 30.7002 18.7654 28.6742C19.4957 26.1927 20.3082 23.4325 22.579 23.4325C24.8498 23.4325 25.6621 26.1927 26.3925 28.6742C26.9887 30.7002 27.5304 32.5404 28.7665 32.5404C30.697 32.5404 30.9335 29.3344 31.1408 26.5233C31.2288 25.33 31.3116 24.2079 31.5165 23.4325C31.7644 22.4941 32.1017 21.725 32.4317 20.9724C33.0169 19.6381 33.579 18.3561 33.579 16.2762C33.579 13.0234 32.204 10.4211 29.454 10.4211C28.1556 10.4211 27.317 10.7111 26.4316 11.0173C25.4417 11.3597 24.3936 11.7222 22.579 11.7222C20.7644 11.7222 19.7162 11.3597 18.7263 11.0173Z" stroke="black" stroke-width="1.7179" stroke-linecap="round" stroke-linejoin="round"/>
</svg>
