<svg width="44" height="44" viewBox="0 0 44 44" fill="none" xmlns="http://www.w3.org/2000/svg">
<path fill-rule="evenodd" clip-rule="evenodd" d="M16.8611 11.875C16.8611 10.8395 17.7938 10 18.9444 10H24.5C25.6506 10 26.5833 10.8395 26.5833 11.875H29.3611C30.5117 11.875 31.4444 12.7145 31.4444 13.75V33.125C31.4444 34.1606 30.5117 35 29.3611 35H14.0833C12.9327 35 12 34.1606 12 33.125V13.75C12 12.7145 12.9327 11.875 14.0833 11.875H16.8611ZM16.8611 13.125H14.0833C13.6998 13.125 13.3889 13.4048 13.3889 13.75V20.6179H17.3004L19.6533 16.8534L21.1234 21.4844L22.9225 19.4026H26.7344C27.1179 19.4026 27.4288 19.6824 27.4288 20.0276C27.4288 20.3728 27.1179 20.6526 26.7344 20.6526H23.6018L20.5397 24.1958L19.2322 20.0769L18.1127 21.8679H13.3889V33.125C13.3889 33.4702 13.6998 33.75 14.0833 33.75H29.3611C29.7447 33.75 30.0556 33.4702 30.0556 33.125V13.75C30.0556 13.4048 29.7447 13.125 29.3611 13.125H26.5833C26.5833 14.1606 25.6506 15 24.5 15H18.9444C17.7938 15 16.8611 14.1606 16.8611 13.125ZM18.9444 11.25C18.5609 11.25 18.25 11.5298 18.25 11.875V13.125C18.25 13.4702 18.5609 13.75 18.9444 13.75H24.5C24.8835 13.75 25.1944 13.4702 25.1944 13.125V11.875C25.1944 11.5298 24.8835 11.25 24.5 11.25H18.9444ZM16.1667 26.875C16.1667 26.5298 16.4776 26.25 16.8611 26.25H26.5833C26.9669 26.25 27.2778 26.5298 27.2778 26.875C27.2778 27.2202 26.9669 27.5 26.5833 27.5H16.8611C16.4776 27.5 16.1667 27.2202 16.1667 26.875ZM16.1667 30.625C16.1667 30.2798 16.4776 30 16.8611 30H21.0278C21.4113 30 21.7222 30.2798 21.7222 30.625C21.7222 30.9702 21.4113 31.25 21.0278 31.25H16.8611C16.4776 31.25 16.1667 30.9702 16.1667 30.625Z" fill="#5E35B1"/>
<circle opacity="0.4" cx="22" cy="22" r="22" fill="#BEA3F5"/>
</svg>
