<svg width="64" height="64" viewBox="0 0 64 64" fill="none" xmlns="http://www.w3.org/2000/svg">
<path d="M0 16C0 7.16344 7.16344 0 16 0H48C56.8366 0 64 7.16344 64 16V48C64 56.8366 56.8366 64 48 64H16C7.16344 64 0 56.8366 0 48V16Z" fill="#006A60"/>
<path d="M30.6667 24C32.1394 24 33.3333 22.8061 33.3333 21.3333C33.3333 19.8606 32.1394 18.6667 30.6667 18.6667C29.1939 18.6667 28 19.8606 28 21.3333C28 22.8061 29.1939 24 30.6667 24Z" stroke="white" stroke-width="2.66667" stroke-linecap="round" stroke-linejoin="round"/>
<path d="M40 29.3333C41.4728 29.3333 42.6667 28.1394 42.6667 26.6667C42.6667 25.1939 41.4728 24 40 24C38.5273 24 37.3334 25.1939 37.3334 26.6667C37.3334 28.1394 38.5273 29.3333 40 29.3333Z" stroke="white" stroke-width="2.66667" stroke-linecap="round" stroke-linejoin="round"/>
<path d="M42.6667 40C44.1394 40 45.3333 38.8061 45.3333 37.3333C45.3333 35.8606 44.1394 34.6667 42.6667 34.6667C41.1939 34.6667 40 35.8606 40 37.3333C40 38.8061 41.1939 40 42.6667 40Z" stroke="white" stroke-width="2.66667" stroke-linecap="round" stroke-linejoin="round"/>
<path d="M28 29.3333C28.8755 29.3333 29.7424 29.5058 30.5512 29.8408C31.3601 30.1758 32.095 30.6669 32.714 31.286C33.3331 31.905 33.8242 32.6399 34.1592 33.4488C34.4942 34.2576 34.6667 35.1245 34.6667 36V40.6667C34.6663 41.782 34.2665 42.8602 33.5398 43.7062C32.813 44.5522 31.8073 45.1099 30.7048 45.2783C29.6023 45.4467 28.4759 45.2148 27.5297 44.6244C26.5835 44.034 25.88 43.1243 25.5467 42.06C24.9778 40.2244 23.7778 39.0222 21.9467 38.4533C20.8829 38.1202 19.9735 37.4172 19.3831 36.4717C18.7927 35.5262 18.5603 34.4006 18.7278 33.2985C18.8954 32.1965 19.4519 31.1908 20.2967 30.4635C21.1414 29.7362 22.2186 29.3353 23.3333 29.3333H28Z" stroke="white" stroke-width="2.66667" stroke-linecap="round" stroke-linejoin="round"/>
</svg>
