<svg width="39" height="39" viewBox="0 0 39 39" fill="none" xmlns="http://www.w3.org/2000/svg">
<path d="M32.5 19.5V35.75H6.5V19.5M19.5 35.75V11.375M19.5 11.375H12.1875C11.1101 11.375 10.0767 10.947 9.31488 10.1851C8.55301 9.42325 8.125 8.38994 8.125 7.3125C8.125 6.23506 8.55301 5.20175 9.31488 4.43988C10.0767 3.67801 11.1101 3.25 12.1875 3.25C17.875 3.25 19.5 11.375 19.5 11.375ZM19.5 11.375H26.8125C27.8899 11.375 28.9233 10.947 29.6851 10.1851C30.447 9.42325 30.875 8.38994 30.875 7.3125C30.875 6.23506 30.447 5.20175 29.6851 4.43988C28.9233 3.67801 27.8899 3.25 26.8125 3.25C21.125 3.25 19.5 11.375 19.5 11.375ZM3.25 11.375H35.75V19.5H3.25V11.375Z" stroke="#E63600" stroke-width="2" stroke-linecap="round" stroke-linejoin="round"/>
</svg>
