<svg width="31" height="42" viewBox="0 0 31 42" fill="none" xmlns="http://www.w3.org/2000/svg">
<path fill-rule="evenodd" clip-rule="evenodd" d="M31 15.2727C31 23.0624 25.0815 29.4899 17.4338 30.4277C17.4363 30.4666 17.4375 30.5059 17.4375 30.5455V34.3636H19.375C20.4451 34.3636 21.3125 35.2183 21.3125 36.2727C21.3125 37.3271 20.4451 38.1818 19.375 38.1818H17.4375V40.0909C17.4375 41.1453 16.5701 42 15.5 42C14.4299 42 13.5625 41.1453 13.5625 40.0909V38.1818H11.625C10.555 38.1818 9.6875 37.3271 9.6875 36.2727C9.6875 35.2183 10.555 34.3636 11.625 34.3636H13.5625V30.5455C13.5625 30.5059 13.5637 30.4666 13.5662 30.4277C5.9184 29.4899 0 23.0624 0 15.2727C0 6.83783 6.93958 0 15.5 0C24.0605 0 31 6.83783 31 15.2727ZM3.88207 15.2727C3.88207 21.5951 9.0836 26.7202 15.5 26.7202C21.9164 26.7202 27.1178 21.5951 27.1178 15.2727C27.1178 8.95041 21.9164 3.82515 15.5 3.82515C9.0836 3.82515 3.88207 8.95041 3.88207 15.2727Z" fill="#0F0F0F"/>
</svg>
