<svg width="41" height="41" viewBox="0 0 41 41" fill="none" xmlns="http://www.w3.org/2000/svg">
<path fill-rule="evenodd" clip-rule="evenodd" d="M27.3333 1.95238C27.3333 0.87412 28.2074 0 29.2857 0H37.0952C39.2518 0 41 1.74822 41 3.90476V11.7143C41 12.7926 40.1259 13.6667 39.0476 13.6667C37.9693 13.6667 37.0952 12.7925 37.0952 11.7143V6.66324L28.2453 15.5132C28.1477 15.6109 28.042 15.696 27.931 15.7688C30.003 18.4192 31.2381 21.7558 31.2381 25.381C31.2381 34.0072 24.2453 41 15.619 41C6.99288 41 0 34.0072 0 25.381C0 16.7547 6.99288 9.7619 15.619 9.7619C19.2425 9.7619 22.5777 10.9958 25.2275 13.0662C25.3003 12.9548 25.3856 12.8492 25.4835 12.7514L34.3299 3.90476H29.2857C28.2074 3.90476 27.3333 3.03064 27.3333 1.95238ZM15.619 37.088C9.15337 37.088 3.91189 31.8467 3.91189 25.381C3.91189 18.9153 9.15337 13.6738 15.619 13.6738C22.0847 13.6738 27.3261 18.9153 27.3261 25.381C27.3261 31.8467 22.0847 37.088 15.619 37.088Z" fill="#0F0F0F"/>
</svg>
