<svg width="40" height="40" viewBox="0 0 40 40" fill="none" xmlns="http://www.w3.org/2000/svg">
<path d="M33.9049 9.07216H21.2371V7.2099C22.677 6.69922 23.7113 5.32412 23.7113 3.71134C23.7113 1.66491 22.0464 0 20 0C17.9536 0 16.2887 1.66491 16.2887 3.71134C16.2887 5.32412 17.323 6.69922 18.7629 7.2099V9.07216H6.09509L0 22.4377V22.7065C0 26.5059 3.09105 29.597 6.89056 29.597C10.6901 29.597 13.7811 26.506 13.7811 22.7065V22.4377L8.81443 11.5464H18.7629V32.5773H12.8049L10.3306 40H29.6693L27.195 32.5773H21.2371V11.5464H31.1856L26.2188 22.4377V22.7065C26.2188 26.5059 29.3099 29.597 33.1094 29.597C36.9089 29.597 40 26.5059 40 22.7064V22.4376L33.9049 9.07216ZM20 2.47423C20.6821 2.47423 21.2371 3.0292 21.2371 3.71134C21.2371 4.39348 20.6821 4.94845 20 4.94845C19.3179 4.94845 18.7629 4.39348 18.7629 3.71134C18.7629 3.0292 19.3179 2.47423 20 2.47423ZM6.89056 27.1227C4.8847 27.1227 3.18796 25.7783 2.65163 23.9435H11.1295C10.5932 25.7783 8.89641 27.1227 6.89056 27.1227ZM10.6202 21.4693H3.16099L6.89064 13.2908L10.6202 21.4693ZM26.2365 37.5258H13.7635L14.5882 35.0515H25.4117L26.2365 37.5258ZM33.1094 13.2908L36.8391 21.4693H29.3798L33.1094 13.2908ZM33.1094 27.1227C31.1036 27.1227 29.4068 25.7783 28.8705 23.9435H37.3484C36.812 25.7783 35.1152 27.1227 33.1094 27.1227Z" fill="black"/>
</svg>
