<?xml version="1.0" encoding="UTF-8"?>
<svg xmlns="http://www.w3.org/2000/svg" viewBox="0 0 841.89 841.89">
  <defs>
    <style>
      .cls-1 {
        fill: #db2c41;
      }

      .cls-2 {
        fill: #afa9a1;
      }

      .cls-3, .cls-4 {
        fill: #fff;
      }

      .cls-3, .cls-5, .cls-6, .cls-7, .cls-8 {
        stroke: #231f20;
        stroke-miterlimit: 10;
      }

      .cls-5 {
        fill: #aac172;
      }

      .cls-6 {
        fill: none;
        stroke-width: 7px;
      }

      .cls-9, .cls-8 {
        fill: #231f20;
      }

      .cls-7 {
        fill: #6b645a;
      }

      .cls-10 {
        fill: #006a5e;
      }

      .cls-11 {
        fill: #ffd7d7;
      }
    </style>
  </defs>
  <g id="Layer_8" data-name="Layer 8">
    <rect class="cls-10" width="841.89" height="841.89"/>
  </g>
  <g id="Layer_2" data-name="Layer 2">
    <path class="cls-2" d="M354.76,326.77c14.04,33.98-12.78,75.92-40.16,80.41-76.35,12.51-63.43-39.91-69.36-76.28-5.93-36.37-29.87-88.21,12.25-94.73s81.28,51.92,97.27,90.6Z"/>
    <path class="cls-2" d="M476.29,327.96c-12.89,34.45,16.15,71.27,42.84,78.96,71.83,20.68,62.05-42.11,66.75-78.66,4.71-36.56,26.88-89.21-15.43-94.25-44.2-5.26-79.48,54.73-94.16,93.95Z"/>
    <path class="cls-11" d="M331.32,358.63c6.74,41.32-11.04,37.52-31.13,40.48-45.42,6.69-35.96-24.38-42.71-65.69s-20.75-66.79-.73-70.19c20.02-3.4,67.82,54.08,74.56,95.4Z"/>
    <path class="cls-11" d="M502.38,359.36c-5.28,41.54,12.98,33.75,32.54,39.31,40.97,11.66,35.08-25.68,40.37-67.21,5.28-41.54,18.39-67.51-1.74-70.17-20.13-2.66-65.88,56.53-71.16,98.07Z"/>
    <ellipse class="cls-3" cx="331.22" cy="439.47" rx="21.61" ry="25.26"/>
  </g>
  <g id="Layer_1" data-name="Layer 1">
    <path class="cls-2" d="M542.13,378.67c16.92,62.13,64.77,196-136.27,194.68-194.97-1.28-148.59-123.66-128.14-184.71,29.91-89.27,86.48-90.2,134.11-89.7,57.33.6,109.15,2.09,130.3,79.73Z"/>
    <path class="cls-4" d="M559.46,507.15c2.02,47.59-74.69,93.35-154.8,93.35s-148.87-53.81-145.12-94.22c3.84-41.47,46.32-25.19,78.39-38.73,25.12-10.61,25.63-44.77,66.74-44.77,54.34,0,48.25,37.96,72.67,47.47,34.64,13.5,80.17-9.21,82.13,36.9Z"/>
    <path class="cls-6" d="M404.06,488.35v26.16-26.16Z"/>
    <path class="cls-7" d="M436.24,462.27c.14-10.83-8.65-13.29-14.6-13.86h0c-5.04-1.71-11.06-2.5-17.23-2.36-7.27.17-12.76,1-16.87,2.36-6.24,1.14-14.92,3.84-14.43,14.65.31,6.83,2.64,10.1,5.75,11.66,4.55,9.52,14.01,19.76,25.17,19.76,11.87,0,23.43-10.96,28.37-21.59,2.24-2.12,3.77-5.43,3.84-10.62Z"/>
    <path class="cls-9" d="M404.1,509.72c1.63,2.85.28,5.79-.99,8.39-3.83,7.45-10.87,12.72-18.05,16.47-23.62,11.68-56.88,12.52-75.98-8.13-3.75-4.16-6.62-9.1-8.55-14.33,0,0,6.56-2.45,6.56-2.45,1.73,4.43,4.15,8.54,7.27,12.04,18.53,20.72,60.79,17.79,80.21-.31,2.55-2.48,4.53-5.35,5.71-8.65.49-1.05.99-2.06,2.11-3.18,0,0,1.71.15,1.71.15h0Z"/>
    <path class="cls-9" d="M405.6,510.29c1.44,1.09,1.81,2.07,2.14,3.16,1.06,3.3,3.05,6.17,5.52,8.66,16.41,15.69,48.2,19.51,68.28,9.2,8.51-4.24,14.99-11.55,18.44-20.39,0,0,6.54,2.51,6.54,2.51-.98,2.57-2.17,5.09-3.59,7.48-18.05,30.87-70.59,28.5-93.43,4.76-2.81-3.06-5.17-6.79-6.3-10.87-.45-1.35-.46-2.92.7-4.37,0,0,1.71-.14,1.71-.14h0Z"/>
  </g>
  <g id="Layer_5" data-name="Layer 5">
    <path class="cls-8" d="M398.77,464.75c-.42,3.2-3.72,12.74-16.69,10.42-9.64-1.73,5.59,1.02,9.43-1.51,3.63-2.4,4.21-5.65,4.07-7.32-.32-3.77-3.21-6.09,1.11-6.73,2.08-.31,2.56,1.53,2.08,5.14Z"/>
    <path class="cls-8" d="M411.52,464.87c.66,3.16,4.66,12.44,17.42,9.2,9.49-2.41-5.5,1.42-9.51-.83-3.8-2.13-4.62-5.34-4.61-7.02.04-3.78,2.75-6.3-1.6-6.63-2.1-.16-2.44,1.71-1.69,5.28Z"/>
  </g>
  <g id="Layer_3" data-name="Layer 3">
    <path class="cls-5" d="M458.66,429.33c.81,16.08,11.27,28.6,23.37,27.96,12.09-.63,22.7-.92,26.85-16.45,1.07-4,19.2-48.39-29.79-41.78-12.01,1.62-21.24,14.18-20.43,30.26Z"/>
    <path class="cls-5" d="M358.62,427.99c1.66,16.01-9.82,29.15-21.93,29.15s-22.72.27-27.65-15.02c-1.27-3.94-21.61-47.32,27.65-43.28,12.07.99,20.5,15.37,21.93,29.15Z"/>
    <path class="cls-8" d="M358.62,427.99c.16,11.91-10.22,18.75-23.14,18.75s-23.4-10.68-23.4-23.86,10.81-24.04,23.74-24.04,22.66,18.38,22.81,29.15Z"/>
    <ellipse class="cls-3" cx="328.62" cy="415.48" rx="6.93" ry="7.07"/>
    <path class="cls-8" d="M458.84,431.63c1.73,11.78,13.06,16.81,25.81,14.68,12.75-2.13,21.4-14.4,19.31-27.41s-14.48-21.94-27.23-19.81-19.45,21.87-17.88,32.53Z"/>
    <ellipse class="cls-3" cx="473.13" cy="414.96" rx="6.6" ry="6.73"/>
  </g>
  <g id="Layer_6" data-name="Layer 6">
    <ellipse class="cls-1" cx="572.47" cy="566.87" rx="67.98" ry="69.33"/>
    <path class="cls-11" d="M617.9,539.55c22.87,21.5-31.68,70.68-46.09,69.03-15.13-1.73-64.51-58.04-36.96-71.49,26.04-12.71,40.4,18.89,40.4,18.89,0,0,12.91-44.4,42.65-16.44Z"/>
  </g>
</svg>