<svg width="44" height="44" viewBox="0 0 44 44" fill="none" xmlns="http://www.w3.org/2000/svg">
<path d="M26.5834 7.33337H17.4167L12.8334 12.8334H7.33341C6.36095 12.8334 5.42832 13.2197 4.74069 13.9073C4.05306 14.5949 3.66675 15.5276 3.66675 16.5V33C3.66675 33.9725 4.05306 34.9051 4.74069 35.5928C5.42832 36.2804 6.36095 36.6667 7.33341 36.6667H36.6667C37.6392 36.6667 38.5718 36.2804 39.2595 35.5928C39.9471 34.9051 40.3334 33.9725 40.3334 33V16.5C40.3334 15.5276 39.9471 14.5949 39.2595 13.9073C38.5718 13.2197 37.6392 12.8334 36.6667 12.8334H31.1667L26.5834 7.33337Z" stroke="#3F4948" stroke-width="3.66667" stroke-linecap="round" stroke-linejoin="round"/>
<path d="M22 29.3334C25.0376 29.3334 27.5 26.8709 27.5 23.8334C27.5 20.7958 25.0376 18.3334 22 18.3334C18.9624 18.3334 16.5 20.7958 16.5 23.8334C16.5 26.8709 18.9624 29.3334 22 29.3334Z" stroke="#3F4948" stroke-width="3.66667" stroke-linecap="round" stroke-linejoin="round"/>
</svg>
