<svg width="24" height="24" viewBox="0 0 24 24" fill="none" xmlns="http://www.w3.org/2000/svg">
<path d="M12 0.750977C12.6722 0.750977 13.3253 0.959404 13.8711 1.34375L14.0977 1.51855L14.1045 1.52441L21.0977 7.51758C21.4586 7.82269 21.7493 8.20312 21.9482 8.63184C22.147 9.06035 22.25 9.52763 22.25 10V19C22.2499 19.8618 21.9072 20.6894 21.2979 21.2988C20.6884 21.908 19.8617 22.25 19 22.25H16.8545V12.8057C16.8544 12.2479 16.6696 11.7009 16.3242 11.2598L16.167 11.0781L15.9912 10.9111C15.5632 10.5439 15.0151 10.3331 14.4375 10.333H9.77148C9.19392 10.333 8.64586 10.544 8.21777 10.9111L8.04199 11.0781C7.59579 11.5456 7.35458 12.1685 7.35449 12.8057V22.25H5C4.13828 22.25 3.31159 21.908 2.70215 21.2988C2.09276 20.6894 1.75012 19.8618 1.75 19V10C1.75 9.52763 1.85299 9.06035 2.05176 8.63184C2.2507 8.20312 2.5414 7.82269 2.90234 7.51758L9.89551 1.52441L9.90234 1.51855C10.4889 1.0229 11.2321 0.750977 12 0.750977ZM14.3545 12.833V22.25H9.85449V12.833H14.3545Z" fill="#006A60"/>
</svg>
