<svg width="44" height="44" viewBox="0 0 44 44" fill="none" xmlns="http://www.w3.org/2000/svg">
<path d="M5.50006 18.3334C5.49993 17.8001 5.61617 17.2731 5.84067 16.7893C6.06517 16.3054 6.39252 15.8764 6.79989 15.5321L19.6332 4.53394C20.295 3.9746 21.1335 3.66772 22.0001 3.66772C22.8666 3.66772 23.7051 3.9746 24.3669 4.53394L37.2002 15.5321C37.6076 15.8764 37.9349 16.3054 38.1594 16.7893C38.3839 17.2731 38.5002 17.8001 38.5001 18.3334V34.8334C38.5001 35.8059 38.1137 36.7385 37.4261 37.4262C36.7385 38.1138 35.8059 38.5001 34.8334 38.5001H9.16673C8.19427 38.5001 7.26164 38.1138 6.574 37.4262C5.88637 36.7385 5.50006 35.8059 5.50006 34.8334V18.3334Z" fill="#3F4948" stroke="#3F4948" stroke-width="4.58333" stroke-linecap="round" stroke-linejoin="round"/>
<path d="M28.6076 41.4029V23.4769C28.6076 22.8827 28.3822 22.3127 27.9811 21.8925C27.58 21.4723 27.0359 21.2362 26.4687 21.2362H17.9131C17.3459 21.2362 16.8018 21.4723 16.4007 21.8925C15.9996 22.3127 15.7742 22.8827 15.7742 23.4769V41.4029" fill="#3F4948"/>
<path d="M28.6076 41.4029V23.4769C28.6076 22.8827 28.3822 22.3127 27.9811 21.8925C27.58 21.4723 27.0359 21.2362 26.4687 21.2362H17.9131C17.3459 21.2362 16.8018 21.4723 16.4007 21.8925C15.9996 22.3127 15.7742 22.8827 15.7742 23.4769V41.4029" stroke="white" stroke-width="4.58333" stroke-linejoin="round"/>
</svg>
