<svg width="39" height="48" viewBox="0 0 39 48" fill="none" xmlns="http://www.w3.org/2000/svg">
<path d="M36.9504 19.3502C36.9504 30.335 24.7645 41.7751 20.6724 45.3083C20.2912 45.595 19.8272 45.75 19.3502 45.75C18.8733 45.75 18.4092 45.595 18.028 45.3083C13.936 41.7751 1.75 30.335 1.75 19.3502C1.75 14.6824 3.6043 10.2057 6.90499 6.90499C10.2057 3.6043 14.6824 1.75 19.3502 1.75C24.0181 1.75 28.4948 3.6043 31.7955 6.90499C35.0961 10.2057 36.9504 14.6824 36.9504 19.3502Z" stroke="#3F4948" stroke-width="3.5" stroke-linecap="round" stroke-linejoin="round"/>
<path d="M19.3501 25.9502C22.9952 25.9502 25.9502 22.9952 25.9502 19.3501C25.9502 15.705 22.9952 12.75 19.3501 12.75C15.705 12.75 12.75 15.705 12.75 19.3501C12.75 22.9952 15.705 25.9502 19.3501 25.9502Z" stroke="#3F4948" stroke-width="3.5" stroke-linecap="round" stroke-linejoin="round"/>
</svg>
