<?xml version="1.0" standalone="no"?>
<!DOCTYPE svg PUBLIC "-//W3C//DTD SVG 20010904//EN"
 "http://www.w3.org/TR/2001/REC-SVG-20010904/DTD/svg10.dtd">
<svg version="1.0" xmlns="http://www.w3.org/2000/svg"
 width="51.000000pt" height="42.000000pt" viewBox="0 0 51.000000 42.000000"
 preserveAspectRatio="xMidYMid meet">

<g transform="translate(0.000000,42.000000) scale(0.100000,-0.100000)"
fill="#000000" stroke="none">
<path d="M11 406 c-8 -9 -11 -73 -9 -207 l3 -194 248 -3 c216 -2 248 0 253 13
4 9 3 103 -1 210 l-7 195 -238 0 c-190 0 -240 -3 -249 -14z m449 -196 l0 -170
-210 0 -210 0 0 170 0 170 210 0 210 0 0 -170z"/>
<path d="M220 275 c0 -33 -2 -35 -35 -35 -32 0 -35 -2 -35 -30 0 -28 3 -30 35
-30 33 0 35 -2 35 -35 0 -33 2 -35 35 -35 33 0 35 2 35 35 0 33 2 35 35 35 32
0 35 2 35 30 0 28 -3 30 -35 30 -33 0 -35 2 -35 35 0 33 -2 35 -35 35 -33 0
-35 -2 -35 -35z"/>
</g>
</svg>
