<svg width="48" height="48" viewBox="0 0 48 48" fill="none" xmlns="http://www.w3.org/2000/svg">
<path d="M45.75 23.75H40.294C39.3325 23.7479 38.3969 24.0609 37.6301 24.6409C36.8633 25.221 36.3076 26.0362 36.048 26.962L30.878 45.354C30.8447 45.4682 30.7752 45.5686 30.68 45.64C30.5848 45.7114 30.469 45.75 30.35 45.75C30.231 45.75 30.1152 45.7114 30.02 45.64C29.9248 45.5686 29.8553 45.4682 29.822 45.354L17.678 2.146C17.6447 2.03176 17.5752 1.9314 17.48 1.86C17.3848 1.7886 17.269 1.75 17.15 1.75C17.031 1.75 16.9152 1.7886 16.82 1.86C16.7248 1.9314 16.6553 2.03176 16.622 2.146L11.452 20.538C11.1934 21.4601 10.641 22.2727 9.8787 22.8524C9.11636 23.4321 8.1857 23.7473 7.228 23.75H1.75" stroke="#3F4948" stroke-width="3.5" stroke-linecap="round" stroke-linejoin="round"/>
</svg>
