<svg width="44" height="44" viewBox="0 0 44 44" fill="none" xmlns="http://www.w3.org/2000/svg">
<path d="M20.1667 11.0001C22.1917 11.0001 23.8333 9.35846 23.8333 7.33341C23.8333 5.30837 22.1917 3.66675 20.1667 3.66675C18.1416 3.66675 16.5 5.30837 16.5 7.33341C16.5 9.35846 18.1416 11.0001 20.1667 11.0001Z" stroke="#3F4948" stroke-width="3.3" stroke-linecap="round" stroke-linejoin="round"/>
<path d="M33 18.3334C35.0251 18.3334 36.6667 16.6918 36.6667 14.6667C36.6667 12.6417 35.0251 11.0001 33 11.0001C30.975 11.0001 29.3334 12.6417 29.3334 14.6667C29.3334 16.6918 30.975 18.3334 33 18.3334Z" stroke="#3F4948" stroke-width="3.3" stroke-linecap="round" stroke-linejoin="round"/>
<path d="M36.6667 33C38.6917 33 40.3333 31.3584 40.3333 29.3334C40.3333 27.3083 38.6917 25.6667 36.6667 25.6667C34.6416 25.6667 33 27.3083 33 29.3334C33 31.3584 34.6416 33 36.6667 33Z" stroke="#3F4948" stroke-width="3.3" stroke-linecap="round" stroke-linejoin="round"/>
<path d="M16.5 18.3334C17.7038 18.3334 18.8958 18.5705 20.0079 19.0311C21.1201 19.4918 22.1306 20.167 22.9818 21.0182C23.833 21.8694 24.5082 22.88 24.9689 23.9921C25.4296 25.1043 25.6667 26.2963 25.6667 27.5V33.9167C25.6662 35.4502 25.1165 36.9328 24.1172 38.096C23.1178 39.2592 21.735 40.0261 20.2191 40.2577C18.7031 40.4893 17.1544 40.1703 15.8534 39.3586C14.5523 38.5468 13.585 37.2959 13.1267 35.8325C12.3444 33.3087 10.6944 31.6556 8.17665 30.8734C6.71399 30.4153 5.46362 29.4487 4.65182 28.1486C3.84001 26.8485 3.52038 25.3008 3.75078 23.7855C3.98118 22.2702 4.74638 20.8874 5.90792 19.8873C7.06945 18.8873 8.55059 18.3361 10.0833 18.3334H16.5Z" stroke="#3F4948" stroke-width="3.3" stroke-linecap="round" stroke-linejoin="round"/>
</svg>
