<svg width="24" height="24" viewBox="0 0 24 24" fill="none" xmlns="http://www.w3.org/2000/svg">
<path d="M12.75 5.25C12.7501 6.25803 13.2096 7.1848 13.958 7.83984C14.7014 8.49032 15.6781 8.83301 16.667 8.83301H21.25V20C21.25 20.862 20.9073 21.6884 20.2979 22.2979C19.6884 22.9073 18.862 23.25 18 23.25H6C5.13805 23.25 4.31164 22.9073 3.70215 22.2979C3.09266 21.6884 2.75 20.862 2.75 20V4C2.75 3.13805 3.09266 2.31164 3.70215 1.70215C4.31164 1.09266 5.13805 0.75 6 0.75H12.75V5.25ZM8 15.75C7.30964 15.75 6.75 16.3096 6.75 17C6.75 17.6904 7.30964 18.25 8 18.25H16C16.6904 18.25 17.25 17.6904 17.25 17C17.25 16.3096 16.6904 15.75 16 15.75H8ZM8 11.75C7.30964 11.75 6.75 12.3096 6.75 13C6.75 13.6904 7.30964 14.25 8 14.25H16C16.6904 14.25 17.25 13.6904 17.25 13C17.25 12.3096 16.6904 11.75 16 11.75H8ZM8 7.75C7.30964 7.75 6.75 8.30964 6.75 9C6.75 9.69036 7.30964 10.25 8 10.25H10C10.6904 10.25 11.25 9.69036 11.25 9C11.25 8.30964 10.6904 7.75 10 7.75H8ZM15.25 0.775391C15.4883 0.824081 15.7092 0.941625 15.8838 1.11621L20.8838 6.11621C20.9498 6.18218 21.0066 6.25538 21.0557 6.33301H17.7139L15.3516 5.64355C15.2819 5.51092 15.2501 5.37589 15.25 5.25V0.775391Z" fill="#006A60"/>
</svg>
