<svg width="24" height="24" viewBox="0 0 24 24" fill="none" xmlns="http://www.w3.org/2000/svg">
<path d="M15 2H6C5.46957 2 4.96086 2.21071 4.58579 2.58579C4.21071 2.96086 4 3.46957 4 4V20C4 20.5304 4.21071 21.0391 4.58579 21.4142C4.96086 21.7893 5.46957 22 6 22H18C18.5304 22 19.0391 21.7893 19.4142 21.4142C19.7893 21.0391 20 20.5304 20 20V7L15 2Z" fill="#006A60" stroke="#006A60" stroke-width="2.5" stroke-linecap="round" stroke-linejoin="round"/>
<path d="M14 0.583374V5.25004C14 5.86888 14.281 6.46237 14.781 6.89996C15.2811 7.33754 15.9594 7.58337 16.6667 7.58337H22" fill="#006A60"/>
<path d="M14 0.583374V5.25004C14 5.86888 14.281 6.46237 14.781 6.89996C15.2811 7.33754 15.9594 7.58337 16.6667 7.58337H22" stroke="white" stroke-width="2.5" stroke-linejoin="round"/>
<path d="M10 9H8H10Z" fill="#006A60"/>
<path d="M10 9H8" stroke="white" stroke-width="2.5" stroke-linecap="round" stroke-linejoin="round"/>
<path d="M16 13H8H16Z" fill="white"/>
<path d="M16 13H8" stroke="white" stroke-width="2.5" stroke-linecap="round" stroke-linejoin="round"/>
<path d="M16 17H8H16Z" fill="white"/>
<path d="M16 17H8" stroke="white" stroke-width="2.5" stroke-linecap="round" stroke-linejoin="round"/>
</svg>
