<svg width="44" height="44" viewBox="0 0 44 44" fill="none" xmlns="http://www.w3.org/2000/svg">
<path d="M27.5 3.66675H11C10.0276 3.66675 9.09495 4.05306 8.40732 4.74069C7.71968 5.42832 7.33337 6.36095 7.33337 7.33341V36.6667C7.33337 37.6392 7.71968 38.5718 8.40732 39.2595C9.09495 39.9471 10.0276 40.3334 11 40.3334H33C33.9725 40.3334 34.9051 39.9471 35.5928 39.2595C36.2804 38.5718 36.6667 37.6392 36.6667 36.6667V12.8334L27.5 3.66675Z" stroke="#3F4948" stroke-width="3.3" stroke-linecap="round" stroke-linejoin="round"/>
<path d="M25.6667 3.66675V11.0001C25.6667 11.9725 26.0531 12.9052 26.7407 13.5928C27.4283 14.2804 28.361 14.6667 29.3334 14.6667H36.6667" stroke="#3F4948" stroke-width="3.3" stroke-linecap="round" stroke-linejoin="round"/>
<path d="M18.3334 16.5001H14.6667" stroke="#3F4948" stroke-width="3.3" stroke-linecap="round" stroke-linejoin="round"/>
<path d="M29.3334 23.8334H14.6667" stroke="#3F4948" stroke-width="3.3" stroke-linecap="round" stroke-linejoin="round"/>
<path d="M29.3334 31.1667H14.6667" stroke="#3F4948" stroke-width="3.3" stroke-linecap="round" stroke-linejoin="round"/>
</svg>
