<svg width="44" height="44" viewBox="0 0 44 44" fill="none" xmlns="http://www.w3.org/2000/svg">
<path d="M0 22C0 9.84974 9.84974 0 22 0C34.1503 0 44 9.84974 44 22C44 34.1503 34.1503 44 22 44C9.84974 44 0 34.1503 0 22Z" fill="white"/>
<path d="M20.6958 32.875C20.8787 33.1917 21.1417 33.4547 21.4583 33.6375C21.775 33.8203 22.1343 33.9166 22.5 33.9166C22.8657 33.9166 23.2249 33.8203 23.5416 33.6375C23.8583 33.4547 24.1213 33.1917 24.3041 32.875" stroke="#3F4948" stroke-width="1.83333" stroke-linecap="round" stroke-linejoin="round"/>
<path d="M13.3979 26.9646C13.2618 27.1137 13.172 27.2992 13.1394 27.4984C13.1068 27.6977 13.1328 27.9021 13.2142 28.0869C13.2957 28.2716 13.4291 28.4287 13.5982 28.539C13.7672 28.6493 13.9647 28.7082 14.1666 28.7083H30.8333C31.0352 28.7084 31.2327 28.6498 31.4019 28.5397C31.5711 28.4295 31.7047 28.2726 31.7863 28.088C31.868 27.9034 31.8942 27.699 31.8619 27.4998C31.8295 27.3005 31.74 27.1149 31.6041 26.9656C30.2187 25.5375 28.75 24.0198 28.75 19.3333C28.75 17.6757 28.0915 16.086 26.9194 14.9139C25.7473 13.7418 24.1576 13.0833 22.5 13.0833C20.8424 13.0833 19.2527 13.7418 18.0806 14.9139C16.9085 16.086 16.25 17.6757 16.25 19.3333C16.25 24.0198 14.7802 25.5375 13.3979 26.9646Z" stroke="#3F4948" stroke-width="1.83333" stroke-linecap="round" stroke-linejoin="round"/>
</svg>
