<svg width="44" height="44" viewBox="0 0 44 44" fill="none" xmlns="http://www.w3.org/2000/svg">
<path d="M0 22C0 9.84974 9.84974 0 22 0C34.1503 0 44 9.84974 44 22C44 34.1503 34.1503 44 22 44C9.84974 44 0 34.1503 0 22Z" fill="white"/>
<path d="M20.6958 32.875C20.8787 33.1917 21.1417 33.4547 21.4583 33.6375C21.775 33.8203 22.1343 33.9166 22.5 33.9166C22.8657 33.9166 23.2249 33.8203 23.5416 33.6375C23.8583 33.4547 24.1213 33.1917 24.3041 32.875" stroke="#3F4948" stroke-width="1.83333" stroke-linecap="round" stroke-linejoin="round"/>
<path d="M13.3979 26.9646C13.2618 27.1137 13.172 27.2992 13.1394 27.4985C13.1068 27.6977 13.1328 27.9021 13.2142 28.0869C13.2957 28.2716 13.4291 28.4287 13.5982 28.539C13.7672 28.6494 13.9647 28.7082 14.1666 28.7083H30.8333C31.0352 28.7084 31.2327 28.6498 31.4019 28.5397C31.5711 28.4296 31.7047 28.2727 31.7863 28.088C31.868 27.9034 31.8942 27.6991 31.8619 27.4998C31.8295 27.3005 31.74 27.1149 31.6041 26.9656C30.2187 25.5375 28.75 24.0198 28.75 19.3333C28.75 17.6757 28.0915 16.086 26.9194 14.9139C25.7473 13.7418 24.1576 13.0833 22.5 13.0833C20.8424 13.0833 19.2527 13.7418 18.0806 14.9139C16.9085 16.086 16.25 17.6757 16.25 19.3333C16.25 24.0198 14.7802 25.5375 13.3979 26.9646Z" stroke="#3F4948" stroke-width="1.83333" stroke-linecap="round" stroke-linejoin="round"/>
<mask id="path-4-inside-1_230_1062" fill="white">
<path d="M26 13C26 10.2386 28.2386 8 31 8C33.7614 8 36 10.2386 36 13C36 15.7614 33.7614 18 31 18C28.2386 18 26 15.7614 26 13Z"/>
</mask>
<path d="M26 13C26 10.2386 28.2386 8 31 8C33.7614 8 36 10.2386 36 13C36 15.7614 33.7614 18 31 18C28.2386 18 26 15.7614 26 13Z" fill="#B3261E"/>
<path d="M26 13M36 13M36 13M26 13M31 8M36 13M31 18M26 13M31 18V16.6667C28.975 16.6667 27.3333 15.025 27.3333 13H26H24.6667C24.6667 16.4978 27.5022 19.3333 31 19.3333V18ZM36 13H34.6667C34.6667 15.025 33.025 16.6667 31 16.6667V18V19.3333C34.4978 19.3333 37.3333 16.4978 37.3333 13H36ZM31 8V9.33333C33.025 9.33333 34.6667 10.975 34.6667 13H36H37.3333C37.3333 9.5022 34.4978 6.66667 31 6.66667V8ZM31 8V6.66667C27.5022 6.66667 24.6667 9.5022 24.6667 13H26H27.3333C27.3333 10.975 28.975 9.33333 31 9.33333V8Z" fill="white" mask="url(#path-4-inside-1_230_1062)"/>
</svg>
