<svg width="44" height="44" viewBox="0 0 44 44" fill="none" xmlns="http://www.w3.org/2000/svg">
<path d="M0 22C0 9.84974 9.84974 0 22 0C34.1503 0 44 9.84974 44 22C44 34.1503 34.1503 44 22 44C9.84974 44 0 34.1503 0 22Z" fill="#2E7D32"/>
<path d="M22 32.4167C27.7529 32.4167 32.4166 27.753 32.4166 22C32.4166 16.247 27.7529 11.5833 22 11.5833C16.247 11.5833 11.5833 16.247 11.5833 22C11.5833 27.753 16.247 32.4167 22 32.4167Z" stroke="white" stroke-width="2.0625" stroke-linecap="round" stroke-linejoin="round"/>
<path d="M18.875 22L20.9583 24.0833L25.125 19.9167" stroke="white" stroke-width="2.0625" stroke-linecap="round" stroke-linejoin="round"/>
</svg>
