<svg width="44" height="44" viewBox="0 0 44 44" fill="none" xmlns="http://www.w3.org/2000/svg">
<path d="M0 22C0 9.84974 9.84974 0 22 0C34.1503 0 44 9.84974 44 22C44 34.1503 34.1503 44 22 44C9.84974 44 0 34.1503 0 22Z" fill="#FFECB3"/>
<path d="M21.9999 32.4167C27.7529 32.4167 32.4166 27.753 32.4166 22C32.4166 16.2471 27.7529 11.5834 21.9999 11.5834C16.247 11.5834 11.5833 16.2471 11.5833 22C11.5833 27.753 16.247 32.4167 21.9999 32.4167Z" stroke="#E65100" stroke-width="1.83333" stroke-linecap="round" stroke-linejoin="round"/>
<path d="M22 17.8334V22" stroke="#E65100" stroke-width="1.83333" stroke-linecap="round" stroke-linejoin="round"/>
<path d="M22 26.1666H22.0095" stroke="#E65100" stroke-width="1.83333" stroke-linecap="round" stroke-linejoin="round"/>
</svg>
